<svg xmlns="http://www.w3.org/2000/svg" version="1.0" viewBox="264 141.78 164 166.69"><path d="M372.2 142.1c-5.4 1-12.5 4.9-19.9 10.8l-5.8 4.7-5.7-4.6c-12-9.7-24.2-13.4-31.4-9.5-5.3 2.8-7.8 9.2-7.9 19.5 0 4.7.4 11 .8 14l.8 5.6-8 3.2c-15.6 6.4-24.2 15.5-22.6 23.8 1.3 6.9 11.6 15.5 24 19.9 2.8 1 5.4 2.1 5.8 2.5s.2 5-.4 10.3c-1.6 13.8-.1 21.7 5.2 27.1 3.8 3.8 4 3.8 10.2 3.4 7.6-.5 14.7-3.7 23.2-10.5l6-4.9 6.3 4.8c9.3 7.1 15.6 10 22.9 10.6 6.2.5 6.3.4 10.2-3.4 5-5 6.7-12.2 5.6-23.9-1.3-14.9-1.7-13.6 4.3-15.6 12.3-4.2 23.4-13.3 24.7-20.1 1.7-8.9-7.2-18-23.7-24.5l-7-2.7.9-6c1.1-8.2.8-20.6-.6-24.8-2.4-7.4-9.4-11.2-17.9-9.7m7 5.8c4.5 1.7 6.1 7.6 5.6 20.1-.2 6.1-.9 11.4-1.4 11.9s-4.9.2-10.1-.8l-9.1-1.6-6.1-7.2c-3.4-4-6.1-7.7-6.1-8.2 0-2.5 12.1-11 19.1-13.5 5.3-1.8 5.2-1.8 8.1-.7m-53.7 2.5c5.5 2.5 15.5 10.1 15.5 11.6 0 .6-2.7 4.3-6.1 8.3l-6.1 7.2-9.1 1.6c-5.1.9-9.5 1.4-9.9 1-1.3-1.2-2.5-15.7-1.7-21.4 1.1-8.3 2.9-10.7 8.2-10.7 2.3 0 6.4 1.1 9.2 2.4m24.7 20.3c5.6 5.5 5.1 6.3-3.7 6.3-4.9 0-7.5-.4-7.5-1.1 0-1.1 6-8.6 7-8.8.2-.1 2.1 1.6 4.2 3.6m13.7 18.2c2.1 3.3 5.3 8.8 7.1 12.4l3.4 6.4-3.9 6.9c-2.1 3.8-5.3 9.3-7.1 12.1L360 232h-27l-3.5-5.4c-1.8-2.9-5.1-8.4-7.1-12.1l-3.8-6.8 3.4-6.4c1.8-3.6 5-9.1 7.1-12.4l3.9-5.9h27zm-44 3.1c-2.3 3.8-4.2 7-4.4 7s-1.2-2.7-2.4-6.1c-1.5-4.4-1.7-6.1-.8-6.4 2.5-.8 5.3-1.3 8.4-1.4l3.2-.1zm57.5-6.3c3.6.6 3.8.8 3.3 3.7-.3 1.7-1.1 4.7-1.9 6.5l-1.4 3.5-2.9-5c-1.5-2.7-3.5-5.9-4.3-7.2-1.3-2.1-1.3-2.2.9-2.2 1.3 0 4.1.3 6.3.7m-72 4.5c.3.7 1.7 4.9 3.4 9.2l2.9 8-3.2 9c-1.8 5-3.7 9.2-4.3 9.4-2.1.7-17.9-7.5-21.5-11.2-4.2-4.1-4.9-8.5-2.1-12.5 2-2.8 10.7-8.4 17.1-11 5.7-2.4 7.2-2.5 7.7-.9m94.6 3.1c19.2 9.4 18.6 19.4-1.6 28.9-4.5 2.1-8.6 3.8-9.1 3.8s-2.6-4.2-4.5-9.4l-3.6-9.5 2.7-7.3c1.6-4 3.1-8.1 3.5-9.2.8-2.3 3.6-1.7 12.6 2.7m-81.4 27.4c1.5 2.7 3.4 5.9 4.3 7.2l1.5 2.4-5.4-.7c-3-.4-5.9-1.1-6.4-1.6-.9-.9 1.8-12 2.9-12 .2 0 1.6 2.1 3.1 4.7m61.8 4.7c.1 2.7-.3 3-3.9 3.8-7.5 1.6-7.8 1.1-3.2-6.7l4.1-7 1.4 3.5c.8 1.9 1.5 4.8 1.6 6.4M320.8 236l8.1 1.2 6 7.4c3.4 4 6.1 7.8 6.1 8.3 0 1.6-7.8 7.7-13.9 11-6.5 3.4-13 4.1-15.4 1.6-2.9-2.9-4-8.5-3.5-19 .5-10.6 1.1-13 3.3-12.1.7.2 4.9 1 9.3 1.6m63.4 2c1.2 5.1 1.1 20.1 0 23.1-2.7 6.8-8.5 7.7-17.8 2.8-6.4-3.3-14.4-9.5-14.4-11 0-.5 2.7-4.2 6-8.2l5.9-7.2 8.3-1.6c4.6-.9 9-1.6 9.8-1.5.8 0 1.8 1.7 2.2 3.6m-30.2 1c0 .5-1.7 2.8-3.7 5.1l-3.7 4.1-3.8-4.1c-2.1-2.2-3.8-4.5-3.8-5.1s3-1 7.5-1c4.3 0 7.5.4 7.5 1"/><path d="M340.3 195.5c-9.6 4.1-9.6 19.3 0 23.8 6.9 3.3 14.5 1 17.9-5.4 6.3-11.8-5.4-23.9-17.9-18.4M264 297c0 9.1.3 11 1.5 11 1.1 0 1.5-1.2 1.5-5.1v-5l3.2.3c2.5.2 4 1.4 6.6 4.8 3.2 4.2 6.2 6.3 6.2 4.3 0-.5-1.4-2.5-3.1-4.6l-3.1-3.8 2.6-2.4c1.5-1.3 2.6-3.5 2.6-4.9 0-3.9-3.4-5.6-11.2-5.6H264zm14.8-6.2c.5 3.7-1.5 5.2-6.9 5.2H267v-8.1l5.8.3c5.1.3 5.7.5 6 2.6M349 297c0 13.1 1.8 15 2.2 2.2l.3-8.7 5.9 8.7c3.2 4.9 6.5 8.8 7.3 8.8 1 0 1.3-2.4 1.3-11 0-6.7-.4-11-1-11s-1 3.5-1 8.5c0 4.7-.3 8.5-.7 8.5-.5 0-3.3-3.8-6.3-8.5s-6.1-8.5-6.7-8.5c-1 0-1.3 2.9-1.3 11m45-10c0 .5.5 1 1 1 .6 0 1-.5 1-1 0-.6-.4-1-1-1-.5 0-1 .4-1 1m-59.2.6c-.5.4-.8 1.5-.8 2.5 0 .9-.6 2-1.2 2.3-1 .5-1 .7 0 1.2.8.4 1.2 2.8 1.2 7 0 5.8.2 6.6 2.3 7.3 2.7 1.1 3.8.3 1.4-1-2.3-1.3-2.5-11.7-.2-12.5 1.9-.8 2-2.4.1-2.4-.8 0-1.6-1.2-1.8-2.6s-.6-2.2-1-1.8m53 0c-.5.4-.8 1.5-.8 2.5 0 .9-.6 2-1.2 2.3-1 .5-1 .7 0 1.2.8.4 1.2 2.8 1.2 7 0 5.8.2 6.6 2.3 7.3 2.9 1.1 3.3.6 1.3-1.4-2.1-2.2-2.2-11.3-.1-12.1 1.9-.8 2-2.4.1-2.4-.8 0-1.6-1.2-1.8-2.6s-.6-2.2-1-1.8M287 294c-2.4 2.4-2.7 8.6-.4 11.8 2.4 3.5 12.4 2.8 12.4-1 0-1.3-2-.9-3.6.7-2.1 2-4 1.9-6.4-.5-3.2-3.2-2.4-4 4-4 6 0 6 0 6-2.9 0-5.5-7.9-8.2-12-4.1m8.8 1.2c2.4 2.4 1.3 3.8-3.1 3.8-5.1 0-6-.6-4.6-3.1 1.1-2.2 5.8-2.6 7.7-.7m8-2.1c-1.9 1.1-2.5 3.9-.8 3.9.6 0 1.3-.7 1.6-1.5.8-2.1 7-2 7.8.1.9 2.4.1 3.1-4.4 3.7-4.6.6-7 2.2-7 4.6 0 3.8 5.6 5.4 10.1 3.1 1.3-.7 1.9-.7 1.9 0 0 .5.5 1 1 1 .6 0 1-3 1-7 0-5.8-.3-7.1-1.9-8-2.5-1.3-7.1-1.2-9.3.1m8.6 10.3c-1.6 4.2-8.8 4.4-8.2.3.2-1.6 1.2-2.3 3.8-2.8 4.1-.6 5.3.1 4.4 2.5m7.6-9.4c-2.5 2.5-2.7 8.6-.4 11.8 1.3 1.9 2.4 2.2 5.6 2 2.5-.2 4.5-1 5.2-2 1.6-2.6 0-3.2-2.3-.9-2.7 2.7-4.6 2.7-6.5-.1-1.8-2.6-2-6.1-.6-8.9 1.3-2.3 6.5-2.6 7.4-.4.7 1.9 2.6 2 2.6 0 0-3.6-7.8-4.7-11-1.5m51.8-.9c-1.9 1.1-2.5 3.9-.8 3.9.6 0 1.3-.7 1.6-1.5.8-2.1 7-2 7.8.1.9 2.4.1 3.1-4.4 3.7-4.6.6-7 2.2-7 4.6 0 3.8 5.6 5.4 10.1 3.1 1.3-.7 1.9-.7 1.9 0 0 .5.5 1 1 1 .6 0 1-3 1-7 0-5.8-.3-7.1-1.9-8-2.5-1.3-7.1-1.2-9.3.1m8.6 10.3c-1.6 4.2-8.8 4.4-8.2.3.2-1.6 1.2-2.3 3.8-2.8 4.1-.6 5.3.1 4.4 2.5M394 300c0 4.7.4 8 1 8s1-3.3 1-8-.4-8-1-8-1 3.3-1 8m5-6.8c0 2.8 5.3 14.8 6.5 14.8 1.4 0 7.2-14.7 6.1-15.7-.9-.9-1.2-.4-3.8 6.6l-2.5 6.5-2.3-6.7c-2.2-6.1-4-8.6-4-5.5m17 .8c-2.4 2.4-2.7 8.6-.4 11.8 1.1 1.6 2.5 2.2 5 2.2 3.8 0 7.4-1.5 7.4-3s-1.9-1.2-3.6.5c-2.1 2-4 1.9-6.4-.5-3.2-3.2-2.4-4 4-4 5.7 0 6-.1 6-2.5 0-3.4-3.3-6.5-7-6.5-1.7 0-3.9.9-5 2m9 1.9c1.5 2.9 1.4 3.1-3.3 3.1-5.1 0-6-.6-4.6-3.1 1.3-2.6 6.5-2.5 7.9 0"/></svg>